<svg width="101" height="27" viewBox="0 0 101 27" fill="none" xmlns="http://www.w3.org/2000/svg">
<path d="M0.0712891 14.1044V10.3544L15.0713 3.74929V8.06392L4.8014 12.1868L4.9399 11.9631V12.4957L4.8014 12.272L15.0713 16.3949V20.7095L0.0712891 14.1044ZM19.0629 1.18182H24.7518L30.7604 15.8409H31.016L37.0246 1.18182H42.7135V23H38.239V8.79901H38.0579L32.4116 22.8935H29.3648L23.7184 8.74574H23.5373V23H19.0629V1.18182ZM45.9141 23V1.18182H50.527V10.1839H59.8914V1.18182H64.4936V23H59.8914V13.9872H50.527V23H45.9141ZM83.4579 0.159089L76.4266 26.2812H72.5168L79.5481 0.159089H83.4579ZM100.929 16.1499L85.9287 22.755V18.4403L96.1986 14.3175L96.0601 14.5412V14.0085L96.1986 14.2322L85.9287 10.1094V5.79474L100.929 12.3999V16.1499Z" fill="#111827"/>
</svg>
